<?xml version="1.0" standalone="no"?>
<svg viewBox="0 0 200 200" xmlns="http://www.w3.org/2000/svg">
  <path fill="#FDF0DF" d="M33.3,-47.6C46,-43.6,61.2,-39.3,65.6,-29.9C69.9,-20.5,63.5,-6.2,60.2,7.8C56.9,21.8,56.8,35.4,50.4,44.9C44.1,54.4,31.6,59.7,18.5,64.3C5.3,68.8,-8.5,72.5,-23,71.4C-37.4,70.3,-52.5,64.4,-63,53.8C-73.5,43.1,-79.5,27.7,-81.9,11.7C-84.3,-4.3,-83.1,-20.9,-77.8,-36.8C-72.5,-52.7,-63,-68,-49.3,-71.4C-35.7,-74.9,-17.8,-66.6,-3.8,-60.7C10.3,-54.9,20.6,-51.5,33.3,-47.6Z" transform="translate(100 100)" />
</svg>
